<?xml version="1.0" standalone="no"?>
<!DOCTYPE svg PUBLIC "-//W3C//DTD SVG 20010904//EN"
 "http://www.w3.org/TR/2001/REC-SVG-20010904/DTD/svg10.dtd">
<svg version="1.0" xmlns="http://www.w3.org/2000/svg"
 width="260.000000pt" height="260.000000pt" viewBox="0 0 260.000000 260.000000"
 preserveAspectRatio="xMidYMid meet">
<metadata>
Created by potrace 1.14, written by Peter Selinger 2001-2017
</metadata>
<g transform="translate(0.000000,260.000000) scale(0.100000,-0.100000)"
fill="#000000" stroke="none">
<path d="M432 2585 c-157 -37 -301 -154 -376 -302 -56 -111 -56 -109 -55 -978
0 -493 4 -821 10 -855 17 -91 85 -215 158 -287 78 -77 188 -136 288 -152 48
-8 303 -11 883 -8 719 3 820 5 861 19 150 52 265 149 334 279 66 126 65 107
64 1004 0 744 -2 815 -18 875 -54 197 -212 353 -411 405 -77 20 -1655 20
-1738 0z"/>
</g>
</svg>
